<svg width="25" height="25" viewBox="0 0 25 25" fill="none" xmlns="http://www.w3.org/2000/svg">
<path d="M24.3754 11.3877L19.3453 15.9438L20.8521 22.727C20.9318 23.0816 20.9091 23.4528 20.7867 23.794C20.6643 24.1353 20.4477 24.4315 20.1639 24.6457C19.8802 24.8599 19.5419 24.9825 19.1914 24.9983C18.8409 25.014 18.4937 24.9222 18.1932 24.7342L12.4928 21.1458L6.80461 24.7342C6.50411 24.9222 6.15689 25.014 5.80636 24.9983C5.45584 24.9825 5.11756 24.8599 4.83383 24.6457C4.55009 24.4315 4.33348 24.1353 4.21109 23.794C4.08869 23.4528 4.06594 23.0816 4.14568 22.727L5.65025 15.9507L0.619029 11.3877C0.352922 11.1495 0.1605 10.8351 0.0658912 10.4838C-0.0287174 10.1326 -0.0213005 9.76017 0.0872117 9.41329C0.195724 9.0664 0.400501 8.76049 0.675864 8.53391C0.951226 8.30733 1.28492 8.17017 1.63509 8.13963L8.26679 7.54349L10.8555 1.13532C10.9906 0.799073 11.2187 0.511853 11.5108 0.309826C11.8029 0.1078 12.1462 0 12.4972 0C12.8483 0 13.1915 0.1078 13.4836 0.309826C13.7758 0.511853 14.0038 0.799073 14.139 1.13532L16.7354 7.54349L23.3649 8.13963C23.7151 8.17017 24.0488 8.30733 24.3241 8.53391C24.5995 8.76049 24.8043 9.0664 24.9128 9.41329C25.0213 9.76017 25.0287 10.1326 24.9341 10.4838C24.8395 10.8351 24.6471 11.1495 24.381 11.3877H24.3754Z" fill="white"/>
</svg>
