<svg width="25" height="25" viewBox="0 0 25 25" fill="none" xmlns="http://www.w3.org/2000/svg">
<path d="M24.9281 9.43812C24.8461 9.16726 24.6878 8.92813 24.4737 8.75159C24.2596 8.57506 23.9995 8.4692 23.7269 8.44769L16.8467 7.82988C16.7631 7.8218 16.6831 7.79023 16.6155 7.73857C16.5478 7.6869 16.4949 7.61709 16.4625 7.5366L13.7741 0.883689C13.6691 0.621986 13.4918 0.398424 13.2646 0.241169C13.0375 0.0839136 12.7706 0 12.4976 0C12.2246 0 11.9577 0.0839136 11.7306 0.241169C11.5034 0.398424 11.3261 0.621986 11.2211 0.883689L8.53617 7.5366C8.50377 7.61709 8.45089 7.6869 8.38321 7.73857C8.31552 7.79023 8.23558 7.8218 8.15194 7.82988L1.27527 8.44769C1.00213 8.47095 0.741718 8.57763 0.52683 8.75429C0.311942 8.93095 0.152185 9.16969 0.0676752 9.44046C-0.0168345 9.71123 -0.0223181 10.0019 0.0519147 10.2759C0.126148 10.5499 0.276778 10.795 0.484839 10.9802L5.70425 15.71C5.76943 15.768 5.8178 15.8437 5.84396 15.9286C5.87012 16.0135 5.87304 16.1043 5.85239 16.1908L4.28425 23.2235C4.21963 23.501 4.23658 23.7923 4.33292 24.0597C4.42926 24.327 4.60056 24.5583 4.82471 24.7236C5.0438 24.8916 5.3064 24.9875 5.57853 24.9989C5.85066 25.0102 6.11982 24.9365 6.35119 24.7873L12.265 21.0612C12.336 21.0158 12.4177 20.9917 12.5011 20.9917C12.5844 20.9917 12.6662 21.0158 12.7372 21.0612L18.651 24.7873C18.8847 24.9328 19.1546 25.0037 19.4269 24.9911C19.6992 24.9784 19.9619 24.8829 20.1822 24.7163C20.4026 24.5497 20.5709 24.3194 20.6661 24.0542C20.7614 23.789 20.7794 23.5005 20.7179 23.2247L19.1532 16.1884C19.1326 16.1019 19.1355 16.0111 19.1616 15.9262C19.1878 15.8413 19.2362 15.7656 19.3014 15.7076L24.5208 10.9778C24.7285 10.7924 24.8782 10.5469 24.9508 10.2726C25.0234 9.99828 25.0155 9.70773 24.9281 9.43812ZM23.912 10.2555L18.6926 14.9852C18.5015 15.1574 18.3594 15.3805 18.2815 15.6305C18.2036 15.8804 18.1929 16.1477 18.2505 16.4035L19.8152 23.4375C19.8371 23.5307 19.8315 23.6286 19.7994 23.7186C19.7672 23.8086 19.7098 23.8865 19.6347 23.9423C19.5625 23.9979 19.4758 24.0296 19.386 24.0333C19.2962 24.0369 19.2074 24.0123 19.1312 23.9627L13.2174 20.2366C13.0017 20.0998 12.7538 20.0275 12.5011 20.0275C12.2483 20.0275 12.0004 20.0998 11.7847 20.2366L5.87091 23.9627C5.79475 24.0123 5.70597 24.0369 5.61616 24.0333C5.52634 24.0296 5.43967 23.9979 5.36748 23.9423C5.29231 23.8865 5.23495 23.8086 5.20277 23.7186C5.1706 23.6286 5.16508 23.5307 5.18694 23.4375L6.75161 16.4011C6.80928 16.1453 6.79859 15.878 6.72068 15.6281C6.64276 15.3781 6.5006 15.155 6.30952 14.9828L1.09011 10.2555C1.01984 10.1928 0.96927 10.1098 0.944926 10.017C0.920582 9.92422 0.923584 9.82599 0.953544 9.735C0.981479 9.64549 1.03409 9.56646 1.10486 9.5077C1.17562 9.44895 1.26143 9.41305 1.35166 9.40446L8.2318 8.78665C8.4834 8.76335 8.72412 8.66923 8.92804 8.5144C9.13196 8.35958 9.29137 8.14993 9.38909 7.90801L12.0763 1.2539C12.1126 1.16858 12.1719 1.09604 12.2471 1.04512C12.3223 0.994196 12.4101 0.967084 12.4999 0.967084C12.5897 0.967084 12.6775 0.994196 12.7527 1.04512C12.8279 1.09604 12.8873 1.16858 12.9235 1.2539L15.6107 7.90801C15.7085 8.14993 15.8679 8.35958 16.0718 8.5144C16.2757 8.66923 16.5164 8.76335 16.768 8.78665L23.6482 9.40446C23.7384 9.41305 23.8242 9.44895 23.895 9.5077C23.9657 9.56646 24.0183 9.64549 24.0463 9.735C24.0765 9.82576 24.0799 9.92383 24.0559 10.0166C24.032 10.1094 23.9819 10.1926 23.912 10.2555Z" fill="white"/>
</svg>
