<svg width="35" height="35" viewBox="0 0 35 35" fill="none" xmlns="http://www.w3.org/2000/svg">
<path d="M34.8994 13.2134C34.7846 12.8342 34.563 12.4994 34.2632 12.2522C33.9634 12.0051 33.5993 11.8569 33.2176 11.8268L23.5854 10.9618C23.4683 10.9505 23.3564 10.9063 23.2616 10.834C23.1669 10.7617 23.0929 10.6639 23.0475 10.5512L19.2837 1.23716C19.1367 0.87078 18.8885 0.557794 18.5705 0.337636C18.2525 0.117479 17.8788 0 17.4966 0C17.1144 0 16.7408 0.117479 16.4228 0.337636C16.1048 0.557794 15.8566 0.87078 15.7095 1.23716L11.9506 10.5512C11.9053 10.6639 11.8312 10.7617 11.7365 10.834C11.6417 10.9063 11.5298 10.9505 11.4127 10.9618L1.78538 11.8268C1.40298 11.8593 1.03841 12.0087 0.737562 12.256C0.436718 12.5033 0.213059 12.8376 0.0947452 13.2166C-0.0235682 13.5957 -0.0312454 14.0027 0.0726806 14.3863C0.176607 14.7699 0.387489 15.113 0.678774 15.3723L7.98596 21.994C8.07721 22.0752 8.14493 22.1811 8.18155 22.3C8.21817 22.4189 8.22226 22.546 8.19335 22.6671L5.99795 32.5129C5.90748 32.9014 5.93121 33.3092 6.06608 33.6835C6.20096 34.0579 6.44078 34.3816 6.75459 34.613C7.06132 34.8483 7.42895 34.9825 7.80994 34.9984C8.19093 35.0143 8.56774 34.9111 8.89166 34.7022L17.171 29.4856C17.2704 29.4221 17.3848 29.3884 17.5015 29.3884C17.6182 29.3884 17.7326 29.4221 17.832 29.4856L26.1113 34.7022C26.4386 34.9059 26.8164 35.0052 27.1976 34.9875C27.5788 34.9698 27.9466 34.836 28.2551 34.6028C28.5636 34.3696 28.7992 34.0472 28.9326 33.6759C29.0659 33.3046 29.0911 32.9007 29.005 32.5146L26.8145 22.6637C26.7856 22.5426 26.7897 22.4155 26.8263 22.2966C26.8629 22.1778 26.9306 22.0718 27.0219 21.9906L34.3291 15.369C34.6199 15.1094 34.8295 14.7656 34.9311 14.3816C35.0327 13.9976 35.0217 13.5908 34.8994 13.2134ZM33.4768 14.3576L26.1697 20.9793C25.9022 21.2203 25.7031 21.5327 25.594 21.8826C25.485 22.2326 25.47 22.6068 25.5507 22.9649L27.7413 32.8125C27.7719 32.943 27.7642 33.0801 27.7191 33.206C27.6741 33.332 27.5938 33.4411 27.4885 33.5192C27.3874 33.5971 27.2661 33.6415 27.1404 33.6466C27.0146 33.6517 26.8903 33.6172 26.7837 33.5478L18.5044 28.3313C18.2024 28.1398 17.8554 28.0385 17.5015 28.0385C17.1476 28.0385 16.8006 28.1398 16.4986 28.3313L8.21927 33.5478C8.11266 33.6172 7.98836 33.6517 7.86262 33.6466C7.73688 33.6415 7.61554 33.5971 7.51447 33.5192C7.40924 33.4411 7.32893 33.332 7.28388 33.206C7.23884 33.0801 7.23112 32.943 7.26172 32.8125L9.45225 22.9616C9.533 22.6035 9.51802 22.2292 9.40895 21.8793C9.29987 21.5293 9.10084 21.217 8.83333 20.9759L1.52615 14.3576C1.42778 14.27 1.35698 14.1537 1.3229 14.0238C1.28881 13.8939 1.29302 13.7564 1.33496 13.629C1.37407 13.5037 1.44773 13.393 1.5468 13.3108C1.64587 13.2285 1.76601 13.1783 1.89232 13.1662L11.5245 12.3013C11.8768 12.2687 12.2138 12.1369 12.4993 11.9202C12.7847 11.7034 13.0079 11.4099 13.1447 11.0712L16.9069 1.75545C16.9576 1.63601 17.0406 1.53446 17.1459 1.46317C17.2512 1.39187 17.3742 1.35392 17.4999 1.35392C17.6256 1.35392 17.7485 1.39187 17.8538 1.46317C17.9591 1.53446 18.0422 1.63601 18.0929 1.75545L21.855 11.0712C21.9918 11.4099 22.215 11.7034 22.5005 11.9202C22.786 12.1369 23.123 12.2687 23.4752 12.3013L33.1074 13.1662C33.2337 13.1783 33.3539 13.2285 33.453 13.3108C33.552 13.393 33.6257 13.5037 33.6648 13.629C33.7071 13.7561 33.7118 13.8934 33.6783 14.0232C33.6448 14.1531 33.5747 14.2696 33.4768 14.3576Z" fill="#820201"/>
</svg>
