<svg width="35" height="35" viewBox="0 0 35 35" fill="none" xmlns="http://www.w3.org/2000/svg">
<path d="M34.1256 15.9428L27.0834 22.3213L29.1929 31.8178C29.3046 32.3143 29.2727 32.8339 29.1014 33.3116C28.93 33.7894 28.6268 34.2041 28.2295 34.504C27.8323 34.8039 27.3587 34.9755 26.868 34.9976C26.3772 35.0196 25.8911 34.891 25.4704 34.6279L17.4899 29.6041L9.52645 34.6279C9.10575 34.891 8.61964 35.0196 8.12891 34.9976C7.63817 34.9755 7.16459 34.8039 6.76736 34.504C6.37012 34.2041 6.06688 33.7894 5.89552 33.3116C5.72417 32.8339 5.69232 32.3143 5.80395 31.8178L7.91035 22.331L0.86664 15.9428C0.494091 15.6093 0.2247 15.1691 0.0922477 14.6774C-0.0402044 14.1856 -0.0298207 13.6642 0.122096 13.1786C0.274014 12.693 0.560701 12.2647 0.946209 11.9475C1.33172 11.6303 1.79888 11.4382 2.28912 11.3955L11.5735 10.5609L15.1976 1.58945C15.3869 1.1187 15.7061 0.716594 16.1151 0.433757C16.5241 0.15092 17.0046 0 17.4961 0C17.9876 0 18.4681 0.15092 18.8771 0.433757C19.2861 0.716594 19.6053 1.1187 19.7946 1.58945L23.4296 10.5609L32.7109 11.3955C33.2011 11.4382 33.6683 11.6303 34.0538 11.9475C34.4393 12.2647 34.726 12.693 34.8779 13.1786C35.0298 13.6642 35.0402 14.1856 34.9078 14.6774C34.7753 15.1691 34.5059 15.6093 34.1334 15.9428H34.1256Z" fill="#820201"/>
</svg>
