<svg width="26" height="26" viewBox="0 0 26 26" fill="none" xmlns="http://www.w3.org/2000/svg">
<path d="M13 0C11.2928 0 9.60235 0.344603 8.02511 1.01413C6.44788 1.68366 5.01477 2.66501 3.80761 3.90214C1.36964 6.40064 0 9.78934 0 13.3228C0 19.2114 3.731 24.2074 8.892 25.9794C9.542 26.0859 9.75 25.6729 9.75 25.3132V23.0617C6.149 23.861 5.382 21.2764 5.382 21.2764C4.784 19.731 3.939 19.318 3.939 19.318C2.756 18.492 4.03 18.5186 4.03 18.5186C5.33 18.6119 6.019 19.8909 6.019 19.8909C7.15 21.9159 9.061 21.3164 9.802 20.9967C9.919 20.1307 10.257 19.5445 10.621 19.2114C7.735 18.8783 4.706 17.7326 4.706 12.6566C4.706 11.1778 5.2 9.99206 6.045 9.04615C5.915 8.71308 5.46 7.32751 6.175 5.52894C6.175 5.52894 7.267 5.16923 9.75 6.88786C10.777 6.59476 11.895 6.44821 13 6.44821C14.105 6.44821 15.223 6.59476 16.25 6.88786C18.733 5.16923 19.825 5.52894 19.825 5.52894C20.54 7.32751 20.085 8.71308 19.955 9.04615C20.8 9.99206 21.294 11.1778 21.294 12.6566C21.294 17.7459 18.252 18.865 15.353 19.1981C15.821 19.6111 16.25 20.4238 16.25 21.6628V25.3132C16.25 25.6729 16.458 26.0993 17.121 25.9794C22.282 24.1941 26 19.2114 26 13.3228C26 11.5732 25.6637 9.84074 25.0104 8.22435C24.3571 6.60796 23.3995 5.13927 22.1924 3.90214C20.9852 2.66501 19.5521 1.68366 17.9749 1.01413C16.3977 0.344603 14.7072 0 13 0Z" fill="#A3A3A3"/>
</svg>
