<svg width="35" height="35" viewBox="0 0 35 35" fill="none" xmlns="http://www.w3.org/2000/svg">
<path d="M34.0563 15.8739C34.4487 15.5676 34.7398 15.1402 34.8888 14.6518C35.0377 14.1634 35.0371 13.6384 34.8869 13.1504C34.7367 12.6624 34.4445 12.2358 34.0512 11.9306C33.658 11.6254 33.1835 11.4568 32.6942 11.4484L23.1912 11.0722C23.1445 11.0689 23.0997 11.0514 23.0622 11.0219C23.0248 10.9925 22.9962 10.9523 22.9801 10.9063L19.6962 1.61271C19.5313 1.13989 19.2316 0.731613 18.8378 0.443157C18.444 0.154701 17.9752 0 17.4947 0C17.0143 0 16.5454 0.154701 16.1516 0.443157C15.7579 0.731613 15.4582 1.13989 15.2932 1.61271L12.0199 10.9395C12.0038 10.9855 11.9752 11.0257 11.9378 11.0551C11.9003 11.0846 11.8555 11.102 11.8088 11.1054L2.30579 11.4816C1.8165 11.49 1.34198 11.6586 0.948757 11.9638C0.55554 12.269 0.263346 12.6955 0.113146 13.1836C-0.0370543 13.6716 -0.0377282 14.1966 0.111219 14.685C0.260165 15.1734 0.551263 15.6008 0.943696 15.9071L8.39826 22.0475C8.43556 22.0783 8.46345 22.1198 8.47846 22.167C8.49348 22.2142 8.49496 22.265 8.48273 22.313L5.91692 31.8389C5.78396 32.324 5.79684 32.8402 5.95381 33.3174C6.11078 33.7945 6.40422 34.2094 6.7942 34.5056C7.18419 34.8018 7.65179 34.9649 8.13339 34.9728C8.61499 34.9807 9.08722 34.8329 9.48582 34.5496L17.3627 29.0177C17.4015 28.9896 17.4476 28.9746 17.4947 28.9746C17.5419 28.9746 17.5879 28.9896 17.6267 29.0177L25.5036 34.5496C25.8968 34.8426 26.3674 35 26.8499 35C27.3324 35 27.8029 34.8426 28.1961 34.5496C28.5862 34.2562 28.8799 33.8433 29.0369 33.3678C29.1938 32.8923 29.2063 32.3775 29.0725 31.8943L26.4856 22.3352C26.4719 22.2872 26.4726 22.2359 26.4878 22.1884C26.5029 22.1409 26.5316 22.0994 26.5701 22.0696L34.0563 15.8739ZM24.4477 22.8773L27.0347 32.4364C27.0557 32.4875 27.0595 32.5446 27.0452 32.5982C27.031 32.6518 26.9997 32.6987 26.9564 32.731C26.9132 32.7633 26.8607 32.7792 26.8077 32.7759C26.7547 32.7726 26.7044 32.7504 26.6651 32.713L18.7882 27.1811C18.4017 26.9069 17.9456 26.7605 17.4789 26.7607V2.22122C17.5286 2.21699 17.5781 2.23134 17.6187 2.26171C17.6593 2.29209 17.6883 2.33653 17.7006 2.38718L20.9844 11.6918C21.1435 12.1504 21.4293 12.5489 21.8054 12.8366C22.1815 13.1243 22.6309 13.2881 23.0962 13.3071L32.5992 13.6833C32.6489 13.6824 32.6975 13.6983 32.7379 13.7286C32.7784 13.7589 32.8085 13.8019 32.8239 13.8514C32.8392 13.9009 32.839 13.9543 32.8233 14.0037C32.8075 14.0531 32.7771 14.0959 32.7364 14.1258L25.2819 20.2662C24.9087 20.5633 24.6295 20.9713 24.4807 21.437C24.3319 21.9027 24.3204 22.4046 24.4477 22.8773Z" fill="#820201"/>
</svg>
