<svg width="20" height="40" viewBox="0 0 20 40" fill="none" xmlns="http://www.w3.org/2000/svg">
<path d="M19.4625 3.37252C19.6342 3.18169 19.7684 2.95721 19.8575 2.7119C19.9466 2.46658 19.9888 2.20524 19.9818 1.94279C19.9747 1.68034 19.9185 1.42192 19.8163 1.18229C19.7142 0.942659 19.5681 0.726508 19.3864 0.546178C19.2047 0.365847 18.991 0.224869 18.7575 0.131293C18.5239 0.0377173 18.2751 -0.0066248 18.0252 0.000799535C17.7754 0.00822387 17.5293 0.0672689 17.3012 0.174563C17.0731 0.281858 16.8673 0.435301 16.6956 0.626131L0.520168 18.6156C0.186124 18.9867 0 19.478 0 19.9888C0 20.4995 0.186124 20.9908 0.520168 21.362L16.6956 39.3534C16.8661 39.5484 17.0719 39.7059 17.3009 39.8167C17.5298 39.9274 17.7775 39.9893 18.0294 39.9987C18.2814 40.0081 18.5326 39.9649 18.7685 39.8714C19.0044 39.778 19.2202 39.6363 19.4035 39.4545C19.5868 39.2727 19.7339 39.0544 19.8362 38.8124C19.9385 38.5704 19.9941 38.3094 19.9995 38.0447C20.005 37.78 19.9604 37.5167 19.8682 37.2703C19.776 37.0238 19.6381 36.799 19.4625 36.609L4.52025 19.9888L19.4625 3.37252Z" fill="#820201"/>
</svg>
