<svg width="35" height="35" viewBox="0 0 35 35" fill="none" xmlns="http://www.w3.org/2000/svg">
<path d="M28 15.5556C28 13.6908 26.81 12.1314 25.2333 11.7561C25.8633 10.5875 26.25 9.23611 26.25 7.77778C26.25 3.48833 23.1105 0 19.25 0C16.5953 0 14.3133 1.66639 13.125 4.09111C11.9367 1.66639 9.65475 0 7 0C3.1395 0 0 3.48833 0 7.77778C0 9.53167 0.546 11.1358 1.42975 12.4367C0.988029 12.7956 0.628466 13.2649 0.3801 13.8066C0.131735 14.3484 0.00152943 14.9475 0 15.5556V31.1111C0 33.2558 1.56975 35 3.5 35H24.5C26.4303 35 28 33.2558 28 31.1111V25.9817L35 29.8706V16.2594L28 20.1483V15.5556ZM19.25 3.88889C21.1803 3.88889 22.75 5.63306 22.75 7.77778C22.75 9.9225 21.1803 11.6667 19.25 11.6667C17.3197 11.6667 15.75 9.9225 15.75 7.77778C15.75 5.63306 17.3197 3.88889 19.25 3.88889ZM7 3.88889C8.93025 3.88889 10.5 5.63306 10.5 7.77778C10.5 9.9225 8.93025 11.6667 7 11.6667C5.06975 11.6667 3.5 9.9225 3.5 7.77778C3.5 5.63306 5.06975 3.88889 7 3.88889ZM3.5 31.1111V15.5556H24.5L24.5035 31.1111H3.5Z" fill="white"/>
</svg>
