<svg width="20" height="40" viewBox="0 0 20 40" fill="none" xmlns="http://www.w3.org/2000/svg">
<path d="M0.537465 3.37252C0.365781 3.18169 0.231564 2.95721 0.142475 2.7119C0.0533851 2.46658 0.0111678 2.20524 0.0182362 1.94279C0.0253046 1.68034 0.0815194 1.42192 0.183669 1.18229C0.28582 0.942659 0.431904 0.726508 0.613585 0.546178C0.795265 0.365847 1.00898 0.224869 1.24254 0.131293C1.47609 0.0377173 1.7249 -0.0066248 1.97476 0.000799535C2.22463 0.00822387 2.47066 0.0672689 2.6988 0.174563C2.92694 0.281858 3.13273 0.435301 3.30441 0.626131L19.4798 18.6156C19.8139 18.9867 20 19.478 20 19.9888C20 20.4995 19.8139 20.9908 19.4798 21.362L3.30441 39.3534C3.13386 39.5484 2.92812 39.7059 2.69914 39.8167C2.47016 39.9274 2.2225 39.9893 1.97056 39.9987C1.71861 40.0081 1.4674 39.9649 1.23151 39.8714C0.995624 39.778 0.779761 39.6363 0.596464 39.4545C0.413167 39.2727 0.266087 39.0544 0.163771 38.8124C0.0614541 38.5704 0.00593993 38.3094 0.00045081 38.0447C-0.00503831 37.78 0.0396074 37.5167 0.131796 37.2703C0.223984 37.0238 0.361877 36.799 0.537465 36.609L15.4797 19.9888L0.537465 3.37252Z" fill="#820201"/>
</svg>
