<svg width="80" height="80" viewBox="0 0 80 80" fill="none" xmlns="http://www.w3.org/2000/svg">
<path d="M57.1755 50.3145H53.562L52.2813 49.0795C56.9188 43.7005 59.4676 36.8334 59.4626 29.7313C59.4626 23.851 57.7188 18.1028 54.4519 13.2135C51.185 8.32419 46.5416 4.51346 41.1089 2.26317C35.6763 0.0128821 29.6983 -0.575896 23.931 0.571291C18.1637 1.71848 12.8661 4.55011 8.7081 8.7081C4.55011 12.8661 1.71848 18.1637 0.571291 23.931C-0.575896 29.6983 0.0128821 35.6763 2.26317 41.1089C4.51346 46.5416 8.32419 51.185 13.2135 54.4519C18.1028 57.7188 23.851 59.4626 29.7313 59.4626C37.0955 59.4626 43.8651 56.7639 49.0795 52.2813L50.3145 53.562V57.1755L73.1847 80L80 73.1847L57.1755 50.3145ZM29.7313 50.3145C18.3419 50.3145 9.1481 41.1206 9.1481 29.7313C9.1481 18.3419 18.3419 9.1481 29.7313 9.1481C41.1206 9.1481 50.3145 18.3419 50.3145 29.7313C50.3145 41.1206 41.1206 50.3145 29.7313 50.3145Z" fill="white"/>
</svg>
