<svg width="40" height="40" viewBox="0 0 40 40" fill="none" xmlns="http://www.w3.org/2000/svg">
<path d="M28.5878 25.1572H26.781L26.1407 24.5397C28.4594 21.8503 29.7338 18.4167 29.7313 14.8656C29.7313 11.9255 28.8594 9.05138 27.226 6.60674C25.5925 4.1621 23.2708 2.25673 20.5545 1.13159C17.8381 0.00644105 14.8491 -0.287948 11.9655 0.285646C9.08185 0.85924 6.43305 2.27505 4.35405 4.35405C2.27505 6.43305 0.85924 9.08185 0.285646 11.9655C-0.287948 14.8491 0.00644105 17.8381 1.13159 20.5545C2.25673 23.2708 4.1621 25.5925 6.60674 27.226C9.05138 28.8594 11.9255 29.7313 14.8656 29.7313C18.5477 29.7313 21.9325 28.3819 24.5397 26.1407L25.1572 26.781V28.5878L36.5923 40L40 36.5923L28.5878 25.1572ZM14.8656 25.1572C9.17096 25.1572 4.57405 20.5603 4.57405 14.8656C4.57405 9.17096 9.17096 4.57405 14.8656 4.57405C20.5603 4.57405 25.1572 9.17096 25.1572 14.8656C25.1572 20.5603 20.5603 25.1572 14.8656 25.1572Z" fill="black"/>
</svg>
