<svg width="26" height="26" viewBox="0 0 26 26" fill="none" xmlns="http://www.w3.org/2000/svg">
<path d="M0 3.25C0 4.11195 0.34241 4.9386 0.951903 5.5481C1.5614 6.15759 2.38805 6.5 3.25 6.5C4.11195 6.5 4.9386 6.15759 5.5481 5.5481C6.15759 4.9386 6.5 4.11195 6.5 3.25C6.5 2.38805 6.15759 1.5614 5.5481 0.951903C4.9386 0.34241 4.11195 0 3.25 0C2.38805 0 1.5614 0.34241 0.951903 0.951903C0.34241 1.5614 0 2.38805 0 3.25ZM9.75 22.75C9.75 23.612 10.0924 24.4386 10.7019 25.0481C11.3114 25.6576 12.138 26 13 26C13.862 26 14.6886 25.6576 15.2981 25.0481C15.9076 24.4386 16.25 23.612 16.25 22.75C16.25 21.888 15.9076 21.0614 15.2981 20.4519C14.6886 19.8424 13.862 19.5 13 19.5C12.138 19.5 11.3114 19.8424 10.7019 20.4519C10.0924 21.0614 9.75 21.888 9.75 22.75ZM9.75 13C9.75 13.862 10.0924 14.6886 10.7019 15.2981C11.3114 15.9076 12.138 16.25 13 16.25C13.862 16.25 14.6886 15.9076 15.2981 15.2981C15.9076 14.6886 16.25 13.862 16.25 13C16.25 12.138 15.9076 11.3114 15.2981 10.7019C14.6886 10.0924 13.862 9.75 13 9.75C12.138 9.75 11.3114 10.0924 10.7019 10.7019C10.0924 11.3114 9.75 12.138 9.75 13ZM9.75 3.25C9.75 4.11195 10.0924 4.9386 10.7019 5.5481C11.3114 6.15759 12.138 6.5 13 6.5C13.862 6.5 14.6886 6.15759 15.2981 5.5481C15.9076 4.9386 16.25 4.11195 16.25 3.25C16.25 2.38805 15.9076 1.5614 15.2981 0.951903C14.6886 0.34241 13.862 0 13 0C12.138 0 11.3114 0.34241 10.7019 0.951903C10.0924 1.5614 9.75 2.38805 9.75 3.25ZM19.5 3.25C19.5 4.11195 19.8424 4.9386 20.4519 5.5481C21.0614 6.15759 21.888 6.5 22.75 6.5C23.612 6.5 24.4386 6.15759 25.0481 5.5481C25.6576 4.9386 26 4.11195 26 3.25C26 2.38805 25.6576 1.5614 25.0481 0.951903C24.4386 0.34241 23.612 0 22.75 0C21.888 0 21.0614 0.34241 20.4519 0.951903C19.8424 1.5614 19.5 2.38805 19.5 3.25Z" fill="#A3A3A3"/>
</svg>
