<svg width="60" height="60" viewBox="0 0 60 60" fill="none" xmlns="http://www.w3.org/2000/svg">
<path d="M6 6.36672e-06L12 15H21L15 6.36672e-06H21L27 15H36L30 6.36672e-06H36L42 15H51L45 6.36672e-06H54C55.65 6.36672e-06 57.063 0.735005 58.239 2.20501C59.415 3.675 60.002 5.44 60 7.5V52.5C60 54.5625 59.412 56.3287 58.236 57.7987C57.06 59.2687 55.648 60.0025 54 60H6C4.35 60 2.937 59.265 1.761 57.795C0.585005 56.325 -0.00199491 54.56 5.09338e-06 52.5V7.5C5.09338e-06 5.4375 0.588005 3.67125 1.764 2.20126C2.94 0.731256 4.352 -0.00249363 6 6.36672e-06ZM6 22.5V52.5H54V22.5H6Z" fill="black"/>
</svg>
