<svg width="35" height="35" viewBox="0 0 35 35" fill="none" xmlns="http://www.w3.org/2000/svg">
<path d="M34.2626 30.7266C34.7321 31.1961 34.9958 31.8328 34.9958 32.4967C34.9958 33.1606 34.7321 33.7974 34.2626 34.2668C33.7931 34.7363 33.1564 35 32.4924 35C31.8285 35 31.1917 34.7363 30.7222 34.2668L17.5 21.0412L4.2736 34.2626C3.80412 34.7321 3.16737 34.9958 2.50342 34.9958C1.83947 34.9958 1.20272 34.7321 0.733234 34.2626C0.263753 33.7932 6.99582e-09 33.1565 0 32.4926C-6.99583e-09 31.8287 0.263753 31.1919 0.733234 30.7225L13.9596 17.501L0.737399 4.27543C0.267917 3.80598 0.00416523 3.16926 0.00416523 2.50535C0.00416524 1.84144 0.267917 1.20473 0.737399 0.735273C1.20688 0.265819 1.84364 0.0020821 2.50758 0.0020821C3.17153 0.00208209 3.80829 0.265819 4.27777 0.735273L17.5 13.9609L30.7264 0.73319C31.1959 0.263736 31.8326 -1.10607e-08 32.4966 0C33.1605 1.10607e-08 33.7973 0.263736 34.2668 0.73319C34.7362 1.20264 35 1.83936 35 2.50327C35 3.16718 34.7362 3.80389 34.2668 4.27335L21.0404 17.501L34.2626 30.7266Z" fill="black"/>
</svg>
