<svg width="25" height="25" viewBox="0 0 25 25" fill="none" xmlns="http://www.w3.org/2000/svg">
<path d="M24.3259 11.3385C24.6062 11.1197 24.8142 10.8145 24.9206 10.4656C25.0269 10.1167 25.0265 9.74169 24.9192 9.39311C24.8119 9.04454 24.6032 8.73988 24.3223 8.52187C24.0414 8.30385 23.7025 8.18341 23.353 8.17743L16.5652 7.90874C16.5318 7.90633 16.4998 7.89385 16.473 7.87282C16.4463 7.85179 16.4259 7.8231 16.4143 7.7902L14.0687 1.15194C13.9509 0.814208 13.7368 0.522581 13.4556 0.316541C13.1743 0.110501 12.8394 0 12.4962 0C12.153 0 11.8181 0.110501 11.5369 0.316541C11.2556 0.522581 11.0416 0.814208 10.9237 1.15194L8.58568 7.81391C8.57412 7.8468 8.55373 7.8755 8.52697 7.89653C8.50021 7.91756 8.46821 7.93003 8.43484 7.93245L1.64699 8.20114C1.2975 8.20712 0.958554 8.32756 0.677684 8.54558C0.396814 8.76359 0.188104 9.06825 0.0808184 9.41682C-0.0264673 9.7654 -0.0269487 10.1404 0.0794418 10.4893C0.185832 10.8382 0.393759 11.1434 0.674069 11.3622L5.99875 15.7482C6.0254 15.7702 6.04532 15.7999 6.05604 15.8336C6.06677 15.8673 6.06783 15.9035 6.05909 15.9379L4.22637 22.7421C4.1314 23.0886 4.1406 23.4573 4.25272 23.7981C4.36484 24.1389 4.57444 24.4353 4.853 24.6469C5.13156 24.8584 5.46556 24.975 5.80957 24.9806C6.15357 24.9862 6.49087 24.8806 6.77558 24.6783L12.402 20.7269C12.4297 20.7069 12.4626 20.6961 12.4962 20.6961C12.5299 20.6961 12.5628 20.7069 12.5905 20.7269L18.2169 24.6783C18.4977 24.8875 18.8338 25 19.1785 25C19.5231 25 19.8592 24.8875 20.1401 24.6783C20.4187 24.4687 20.6285 24.1738 20.7406 23.8341C20.8527 23.4945 20.8616 23.1268 20.7661 22.7816L18.9183 15.9537C18.9085 15.9194 18.909 15.8828 18.9198 15.8489C18.9306 15.8149 18.9512 15.7853 18.9786 15.764L24.3259 11.3385ZM17.4627 16.3409L19.3105 23.1688C19.3255 23.2053 19.3282 23.2461 19.318 23.2844C19.3078 23.3227 19.2855 23.3562 19.2546 23.3793C19.2237 23.4024 19.1862 23.4137 19.1484 23.4114C19.1105 23.409 19.0746 23.3932 19.0465 23.3664L13.4201 19.4151C13.1441 19.2192 12.8183 19.1146 12.4849 19.1148V1.58659C12.5204 1.58357 12.5558 1.59381 12.5848 1.61551C12.6138 1.6372 12.6345 1.66895 12.6433 1.70513L14.9889 8.35129C15.1025 8.67885 15.3066 8.96353 15.5753 9.16902C15.8439 9.37452 16.1649 9.49151 16.4973 9.50508L23.2851 9.77378C23.3206 9.77318 23.3554 9.78452 23.3842 9.80613C23.4131 9.82775 23.4346 9.8585 23.4456 9.89388C23.4566 9.92925 23.4564 9.96737 23.4452 10.0027C23.434 10.0379 23.4122 10.0685 23.3832 10.0899L18.0585 14.4759C17.7919 14.6881 17.5925 14.9795 17.4862 15.3122C17.3799 15.6448 17.3717 16.0033 17.4627 16.3409Z" fill="white"/>
</svg>
